<svg width="512" height="512" viewBox="0 0 512 512" fill="none" xmlns="http://www.w3.org/2000/svg">
<rect width="512" height="512" fill="white"/>
<path d="M205.793 219.588C230.056 219.588 249.724 191.49 249.724 156.829C249.724 122.169 230.056 94.0709 205.793 94.0709C181.531 94.0709 161.862 122.169 161.862 156.829C161.862 191.49 181.531 219.588 205.793 219.588Z" fill="#FFB334"/>
<path d="M306.207 219.588C330.469 219.588 350.138 191.49 350.138 156.829C350.138 122.169 330.469 94.0709 306.207 94.0709C281.944 94.0709 262.276 122.169 262.276 156.829C262.276 191.49 281.944 219.588 306.207 219.588Z" fill="#FFB334"/>
<path d="M149.31 232.14C149.31 266.801 145.005 294.898 124.207 294.898C103.409 294.898 74 266.801 74 232.14C74 197.478 90.857 169.381 111.655 169.381C132.453 169.381 149.31 197.478 149.31 232.14Z" fill="#FFB334"/>
<path d="M438 232.14C438 266.801 408.591 294.898 387.793 294.898C366.995 294.898 362.69 266.801 362.69 232.14C362.69 197.478 379.547 169.381 400.345 169.381C421.143 169.381 438 197.478 438 232.14Z" fill="#FFB334"/>
<path d="M356.414 339.727C356.414 377.326 336.959 408.918 293.655 417.874C285.635 419.531 264.667 382.76 256 382.76C247.333 382.76 226.365 419.531 218.345 417.874C175.041 408.918 155.586 377.326 155.586 339.727C155.586 295.162 200.54 232.14 256 232.14C311.46 232.14 356.414 295.162 356.414 339.727Z" fill="#FFB334"/>
<path d="M180.689 345.105H180.564C177.099 345.037 174.345 342.172 174.414 338.706C174.414 338.706 174.414 338.705 174.414 338.704C175.11 304.055 211.937 250.967 256 250.967C259.466 250.967 262.276 253.777 262.276 257.243C262.276 260.709 259.466 263.519 256 263.519C219.38 263.519 187.555 309.854 186.965 338.955C186.897 342.372 184.107 345.106 180.689 345.105Z" fill="#FFEEAD"/>
</svg>
