<svg width="114" height="169" viewBox="0 0 114 169" fill="none" xmlns="http://www.w3.org/2000/svg">
<path d="M68.8487 105.845C44.7952 121.976 8.16352 139.593 4.86128 133.48C1.55904 127.367 17.0817 110.02 38.3255 89.2595C60.7009 67.3765 76.4257 61.1783 84.2348 63.5381C96.878 67.4011 92.891 89.7554 68.8487 105.845Z" fill="#D4C962"/>
<path d="M35.6988 61.6872C15.0066 90.8534 -3.93971 139.692 3.90654 143.131C11.4908 146.441 24.7328 124.427 52.8989 96.4914C80.3881 69.3098 112.283 33.3276 108.885 23.862C102.368 5.88194 64.4587 21.1816 35.6988 61.6872Z" fill="#D4C962"/>
<path d="M3.42015 141.129L3.73205 139.965C3.82488 139.619 3.914 139.286 4.00312 138.954C4.18506 138.275 4.51287 137.605 4.76942 137.035C8.65255 128.08 16.8634 120.967 25.1797 116.23C38.3246 108.642 52.8777 103.882 67.5115 100.095C74.7323 98.2275 82.0332 96.5597 89.298 94.9714C95.3558 93.6241 102.006 90.9503 108.205 91.7349C114.404 92.5195 112.472 98.953 109.395 101.856C81.4582 128.161 37.8684 116.213 11.4206 143.273C10.6597 144.064 7.83405 144.644 6.80235 145.006C4.21333 145.976 2.8095 143.298 3.42015 141.129Z" fill="#F6DF8A"/>
<path d="M8.64826 127.384C49.0537 54.5608 85.1704 39.1058 85.5956 38.9371L86.1547 40.3298C85.7982 40.4691 50.1455 55.7779 10.0186 128.089L8.64826 127.384Z" fill="#F6DF8A"/>
<path d="M94.0834 43.4109C100.511 39.3847 103.883 33.1836 101.614 29.5604C99.3445 25.9372 92.294 26.264 85.866 30.2902C79.438 34.3165 76.0666 40.5176 78.3357 44.1408C80.6049 47.764 87.6554 47.4372 94.0834 43.4109Z" fill="#F6DF8A"/>
</svg>
