<svg width="160" height="140" viewBox="0 0 160 140" fill="none" xmlns="http://www.w3.org/2000/svg">
<path fill-rule="evenodd" clip-rule="evenodd" d="M99 58.625V89.5C99 91.2239 98.3152 92.8772 97.0962 94.0962C95.8772 95.3152 94.2239 96 92.5 96H66.5C64.7761 96 63.1228 95.3152 61.9038 94.0962C60.6848 92.8772 60 91.2239 60 89.5V50.5C60 48.7761 60.6848 47.1228 61.9038 45.9038C63.1228 44.6848 64.7761 44 66.5 44H84.375L99 58.625ZM85.8029 57.1971C84.8886 56.2829 84.375 55.0429 84.375 53.75V47.25H66.5C65.638 47.25 64.8114 47.5924 64.2019 48.2019C63.5924 48.8114 63.25 49.638 63.25 50.5V89.5C63.25 90.362 63.5924 91.1886 64.2019 91.7981C64.8114 92.4076 65.638 92.75 66.5 92.75H92.5C93.362 92.75 94.1886 92.4076 94.7981 91.7981C95.4076 91.1886 95.75 90.362 95.75 89.5V58.625H89.25C87.9571 58.625 86.7171 58.1114 85.8029 57.1971ZM77.4529 60.476C77.7499 60.7807 77.9167 61.194 77.9167 61.625V63.6855L79.6552 62.6553C79.8353 62.5469 80.0345 62.4761 80.2414 62.4471C80.4483 62.4181 80.6588 62.4313 80.8606 62.4861C81.0625 62.5409 81.2518 62.6361 81.4177 62.7663C81.5836 62.8964 81.7227 63.059 81.8271 63.2446C81.9315 63.4302 81.9991 63.6351 82.0261 63.8477C82.053 64.0602 82.0387 64.2761 81.9839 64.4829C81.9292 64.6897 81.8352 64.8834 81.7073 65.0527C81.5793 65.2221 81.42 65.3638 81.2385 65.4697L79.5 66.5L81.2385 67.5303C81.42 67.6362 81.5793 67.7779 81.7073 67.9473C81.8352 68.1166 81.9292 68.3103 81.9839 68.5171C82.0387 68.7239 82.053 68.9398 82.0261 69.1523C81.9991 69.3649 81.9315 69.5698 81.8271 69.7554C81.7227 69.941 81.5836 70.1036 81.4177 70.2337C81.2518 70.3639 81.0625 70.4591 80.8606 70.5139C80.6588 70.5687 80.4483 70.5819 80.2414 70.5529C80.0345 70.5239 79.8353 70.4531 79.6552 70.3447L77.9167 69.3145V71.375C77.9167 71.806 77.7499 72.2193 77.4529 72.524C77.156 72.8288 76.7533 73 76.3333 73C75.9134 73 75.5107 72.8288 75.2137 72.524C74.9168 72.2193 74.75 71.806 74.75 71.375V69.3145L73.0115 70.3447C72.8314 70.4531 72.6321 70.5239 72.4252 70.5529C72.2183 70.5819 72.0079 70.5687 71.806 70.5139C71.6042 70.4591 71.4148 70.3639 71.249 70.2337C71.0831 70.1036 70.9439 69.941 70.8395 69.7554C70.7351 69.5698 70.6675 69.3649 70.6406 69.1523C70.6137 68.9398 70.628 68.7239 70.6827 68.5171C70.7374 68.3103 70.8315 68.1166 70.9594 67.9473C71.0873 67.7779 71.2466 67.6362 71.4282 67.5303L73.1667 66.5L71.4282 65.4697C71.2466 65.3638 71.0873 65.2221 70.9594 65.0527C70.8315 64.8834 70.7374 64.6897 70.6827 64.4829C70.628 64.2761 70.6137 64.0602 70.6406 63.8477C70.6675 63.6351 70.7351 63.4302 70.8395 63.2446C70.9439 63.059 71.0831 62.8964 71.249 62.7663C71.4148 62.6361 71.6042 62.5409 71.806 62.4861C72.0079 62.4313 72.2183 62.4181 72.4252 62.4471C72.6321 62.4761 72.8314 62.5469 73.0115 62.6553L74.75 63.6855V61.625C74.75 61.194 74.9168 60.7807 75.2137 60.476C75.5107 60.1712 75.9134 60 76.3333 60C76.7533 60 77.156 60.1712 77.4529 60.476ZM70.4637 76.726C70.7607 76.4212 71.1634 76.25 71.5833 76.25H87.4167C87.8366 76.25 88.2393 76.4212 88.5363 76.726C88.8332 77.0307 89 77.444 89 77.875C89 78.306 88.8332 78.7193 88.5363 79.024C88.2393 79.3288 87.8366 79.5 87.4167 79.5H71.5833C71.1634 79.5 70.7607 79.3288 70.4637 79.024C70.1668 78.7193 70 78.306 70 77.875C70 77.444 70.1668 77.0307 70.4637 76.726ZM70.4637 83.226C70.7607 82.9212 71.1634 82.75 71.5833 82.75H87.4167C87.8366 82.75 88.2393 82.9212 88.5363 83.226C88.8332 83.5307 89 83.944 89 84.375C89 84.806 88.8332 85.2193 88.5363 85.524C88.2393 85.8288 87.8366 86 87.4167 86H71.5833C71.1634 86 70.7607 85.8288 70.4637 85.524C70.1668 85.2193 70 84.806 70 84.375C70 83.944 70.1668 83.5307 70.4637 83.226Z" fill="#1F1F1F" fill-opacity="0.3"/>
</svg>
