<svg width="173" height="173" viewBox="0 0 173 173" fill="none" xmlns="http://www.w3.org/2000/svg">
<path d="M86.5 0.3125C109.358 0.3125 131.28 9.39294 147.444 25.5562C163.607 41.7195 172.688 63.6417 172.688 86.5C172.688 109.358 163.607 131.28 147.444 147.444C131.28 163.607 109.358 172.688 86.5 172.688C63.6417 172.688 41.7195 163.607 25.5562 147.444C9.39294 131.28 0.3125 109.358 0.3125 86.5C0.3125 63.6417 9.39294 41.7195 25.5562 25.5562C41.7195 9.39294 63.6417 0.3125 86.5 0.3125V0.3125ZM75.7635 103.504L56.6176 84.3453C55.9312 83.6589 55.1163 83.1145 54.2196 82.743C53.3228 82.3715 52.3616 82.1804 51.3909 82.1804C50.4202 82.1804 49.4591 82.3715 48.5623 82.743C47.6655 83.1145 46.8506 83.6589 46.1642 84.3453C44.7781 85.7315 43.9993 87.6116 43.9993 89.572C43.9993 91.5323 44.7781 93.4124 46.1642 94.7986L70.543 119.177C71.2274 119.867 72.0417 120.415 72.9387 120.788C73.8358 121.162 74.7979 121.354 75.7697 121.354C76.7414 121.354 77.7035 121.162 78.6006 120.788C79.4977 120.415 80.3119 119.867 80.9963 119.177L131.478 68.6838C132.173 68.0003 132.726 67.1858 133.106 66.2874C133.485 65.3889 133.682 64.4243 133.687 63.4491C133.691 62.4739 133.503 61.5075 133.132 60.6056C132.761 59.7036 132.216 58.8841 131.526 58.1941C130.837 57.5041 130.018 56.9574 129.117 56.5855C128.215 56.2136 127.249 56.0239 126.274 56.0273C125.299 56.0307 124.334 56.2271 123.435 56.6053C122.536 56.9834 121.721 57.5358 121.037 58.2305L75.7635 103.504Z" fill="#FF732B"/>
</svg>
