<svg width="29" height="58" viewBox="0 0 29 58" fill="none" xmlns="http://www.w3.org/2000/svg">
  <path
    d="M25.0455 13.1818V43.5C25.0455 46.2968 23.9344 48.9791 21.9568 50.9568C19.9791 52.9344 17.2968 54.0455 14.5 54.0455C11.7032 54.0455 9.02089 52.9344 7.04324 50.9568C5.06558 48.9791 3.95455 46.2968 3.95455 43.5V10.5455C3.95455 8.79744 4.64894 7.12101 5.88498 5.88498C7.12101 4.64894 8.79744 3.95455 10.5455 3.95455C12.2935 3.95455 13.9699 4.64894 15.2059 5.88498C16.442 7.12101 17.1364 8.79744 17.1364 10.5455V38.2273C17.1364 38.9265 16.8586 39.5971 16.3642 40.0915C15.8698 40.5859 15.1992 40.8636 14.5 40.8636C13.8008 40.8636 13.1302 40.5859 12.6358 40.0915C12.1414 39.5971 11.8636 38.9265 11.8636 38.2273V13.1818H7.90909V38.2273C7.90909 39.9753 8.60349 41.6517 9.83952 42.8878C11.0756 44.1238 12.752 44.8182 14.5 44.8182C16.248 44.8182 17.9244 44.1238 19.1605 42.8878C20.3965 41.6517 21.0909 39.9753 21.0909 38.2273V10.5455C21.0909 7.74863 19.9799 5.06635 18.0022 3.08869C16.0246 1.11104 13.3423 0 10.5455 0C7.74863 0 5.06635 1.11104 3.08869 3.08869C1.11104 5.06635 0 7.74863 0 10.5455V43.5C0 47.3456 1.52767 51.0338 4.24695 53.7531C6.96623 56.4723 10.6544 58 14.5 58C18.3456 58 22.0338 56.4723 24.7531 53.7531C27.4723 51.0338 29 47.3456 29 43.5V13.1818H25.0455Z"
    fill="rgba(255, 115, 43, 1)" />
</svg>
