<svg width="40" height="40" viewBox="0 0 40 40" fill="none" xmlns="http://www.w3.org/2000/svg">
  <path
    d="M1.43749 1.43755C2.14072 0.734532 3.09437 0.3396 4.08874 0.3396C5.0831 0.3396 6.03676 0.734532 6.73999 1.43755L20 14.6975L33.26 1.43755C33.9672 0.754456 34.9145 0.376477 35.8977 0.385021C36.881 0.393565 37.8215 0.787949 38.5168 1.48323C39.2121 2.17851 39.6065 3.11906 39.615 4.10229C39.6236 5.08553 39.2456 6.03279 38.5625 6.74005L25.3025 20L38.5625 33.26C39.2456 33.9673 39.6236 34.9146 39.615 35.8978C39.6065 36.881 39.2121 37.8216 38.5168 38.5169C37.8215 39.2121 36.881 39.6065 35.8977 39.6151C34.9145 39.6236 33.9672 39.2456 33.26 38.5625L20 25.3025L6.73999 38.5625C6.03273 39.2456 5.08547 39.6236 4.10223 39.6151C3.119 39.6065 2.17845 39.2121 1.48317 38.5169C0.787888 37.8216 0.393504 36.881 0.38496 35.8978C0.376416 34.9146 0.754395 33.9673 1.43749 33.26L14.6975 20L1.43749 6.74005C0.734471 6.03682 0.339539 5.08316 0.339539 4.0888C0.339539 3.09443 0.734471 2.14078 1.43749 1.43755V1.43755Z"
    fill="rgba(255, 255, 255, 1)" />
</svg>
